<svg width="198" height="27" viewBox="0 0 198 27" fill="none" xmlns="http://www.w3.org/2000/svg">
<path d="M13.6719 0.703125L17.4375 26H10.7031L10.375 21.4531H8.01562L7.625 26H0.8125L4.15625 0.703125H13.6719ZM10.1875 16.9688C9.85417 14.1042 9.52083 10.5677 9.1875 6.35938C8.52083 11.1927 8.10417 14.7292 7.9375 16.9688H10.1875ZM28.3406 0.703125V26H21.7625V0.703125H28.3406Z" fill="#FF7664"/>
<path d="M38.1969 12.8125C38.8115 12.8125 39.3479 13.0312 39.8062 13.4688C40.2646 13.9062 40.4937 14.4479 40.4937 15.0938C40.4937 15.7292 40.2698 16.2708 39.8219 16.7188C39.374 17.1667 38.8323 17.3906 38.1969 17.3906C37.5719 17.3906 37.0354 17.1667 36.5875 16.7188C36.1396 16.2708 35.9156 15.7292 35.9156 15.0938C35.9156 14.4583 36.1396 13.9219 36.5875 13.4844C37.0354 13.0365 37.5719 12.8125 38.1969 12.8125ZM62.2406 0.703125V26H55.9281V24.5C55.324 25.125 54.6885 25.5938 54.0219 25.9062C53.3552 26.2188 52.6573 26.375 51.9281 26.375C50.949 26.375 50.1 26.1198 49.3812 25.6094C48.6625 25.0885 48.199 24.4896 47.9906 23.8125C47.7927 23.1354 47.6937 22.0312 47.6937 20.5V10.7969C47.6937 9.20312 47.7927 8.07292 47.9906 7.40625C48.199 6.73958 48.6677 6.15625 49.3969 5.65625C50.126 5.14583 50.9958 4.89062 52.0062 4.89062C52.7875 4.89062 53.501 5.03125 54.1469 5.3125C54.8031 5.59375 55.3969 6.01562 55.9281 6.57812V0.703125H62.2406ZM55.9281 10.4844C55.9281 9.72396 55.8604 9.21354 55.725 8.95312C55.6 8.69271 55.3448 8.5625 54.9594 8.5625C54.5844 8.5625 54.3292 8.68229 54.1937 8.92188C54.0687 9.15104 54.0062 9.67188 54.0062 10.4844V20.6406C54.0062 21.4844 54.0687 22.0417 54.1937 22.3125C54.3187 22.5729 54.5583 22.7031 54.9125 22.7031C55.3187 22.7031 55.5896 22.5573 55.725 22.2656C55.8604 21.9635 55.9281 21.2344 55.9281 20.0781V10.4844ZM82.0031 16H73.8313V20.4844C73.8313 21.4219 73.899 22.026 74.0344 22.2969C74.1698 22.5677 74.4302 22.7031 74.8156 22.7031C75.2948 22.7031 75.6125 22.526 75.7688 22.1719C75.9354 21.8073 76.0188 21.1094 76.0188 20.0781V17.3438H82.0031V18.875C82.0031 20.1562 81.9198 21.1406 81.7531 21.8281C81.5969 22.5156 81.2219 23.25 80.6281 24.0312C80.0344 24.8125 79.2792 25.401 78.3625 25.7969C77.4563 26.1823 76.3156 26.375 74.9406 26.375C73.6073 26.375 72.4302 26.1823 71.4094 25.7969C70.3885 25.4115 69.5917 24.8854 69.0188 24.2188C68.4563 23.5417 68.0656 22.8021 67.8469 22C67.6281 21.1875 67.5188 20.0104 67.5188 18.4688V12.4219C67.5188 10.6094 67.7635 9.18229 68.2531 8.14062C68.7427 7.08854 69.5448 6.28646 70.6594 5.73438C71.774 5.17188 73.0552 4.89062 74.5031 4.89062C76.274 4.89062 77.7323 5.22917 78.8781 5.90625C80.0344 6.57292 80.8417 7.46354 81.3 8.57812C81.7688 9.68229 82.0031 11.2396 82.0031 13.25V16ZM75.675 12.625V11.1094C75.675 10.0365 75.6177 9.34375 75.5031 9.03125C75.3885 8.71875 75.1542 8.5625 74.8 8.5625C74.3625 8.5625 74.0917 8.69792 73.9875 8.96875C73.8833 9.22917 73.8313 9.94271 73.8313 11.1094V12.625H75.675ZM93.9375 2.5V5.76562H95.6406V9.04688H93.9375V20.1406C93.9375 21.5052 94.0052 22.2656 94.1406 22.4219C94.2865 22.5781 94.875 22.6562 95.9062 22.6562V26H93.3594C91.9219 26 90.8958 25.9427 90.2812 25.8281C89.6667 25.7031 89.125 25.4271 88.6562 25C88.1875 24.5625 87.8958 24.0677 87.7812 23.5156C87.6667 22.9531 87.6094 21.6406 87.6094 19.5781V9.04688H86.25V5.76562H87.6094V2.5H93.9375ZM114.528 16H106.356V20.4844C106.356 21.4219 106.424 22.026 106.559 22.2969C106.695 22.5677 106.955 22.7031 107.341 22.7031C107.82 22.7031 108.137 22.526 108.294 22.1719C108.46 21.8073 108.544 21.1094 108.544 20.0781V17.3438H114.528V18.875C114.528 20.1562 114.445 21.1406 114.278 21.8281C114.122 22.5156 113.747 23.25 113.153 24.0312C112.559 24.8125 111.804 25.401 110.887 25.7969C109.981 26.1823 108.841 26.375 107.466 26.375C106.132 26.375 104.955 26.1823 103.934 25.7969C102.914 25.4115 102.117 24.8854 101.544 24.2188C100.981 23.5417 100.591 22.8021 100.372 22C100.153 21.1875 100.044 20.0104 100.044 18.4688V12.4219C100.044 10.6094 100.289 9.18229 100.778 8.14062C101.268 7.08854 102.07 6.28646 103.184 5.73438C104.299 5.17188 105.58 4.89062 107.028 4.89062C108.799 4.89062 110.257 5.22917 111.403 5.90625C112.559 6.57292 113.367 7.46354 113.825 8.57812C114.294 9.68229 114.528 11.2396 114.528 13.25V16ZM108.2 12.625V11.1094C108.2 10.0365 108.143 9.34375 108.028 9.03125C107.914 8.71875 107.679 8.5625 107.325 8.5625C106.887 8.5625 106.617 8.69792 106.512 8.96875C106.408 9.22917 106.356 9.94271 106.356 11.1094V12.625H108.2ZM133.759 13.0938H127.806V10.7031C127.806 9.86979 127.739 9.30729 127.603 9.01562C127.468 8.71354 127.218 8.5625 126.853 8.5625C126.489 8.5625 126.244 8.69271 126.119 8.95312C125.994 9.21354 125.931 9.79688 125.931 10.7031V20.4844C125.931 21.224 126.025 21.7812 126.213 22.1562C126.4 22.5208 126.676 22.7031 127.041 22.7031C127.468 22.7031 127.754 22.5104 127.9 22.125C128.056 21.7396 128.134 21.0104 128.134 19.9375V17.4688H133.759C133.749 19.125 133.686 20.3698 133.572 21.2031C133.468 22.026 133.119 22.875 132.525 23.75C131.942 24.6146 131.176 25.2708 130.228 25.7188C129.28 26.1562 128.108 26.375 126.713 26.375C124.931 26.375 123.52 26.0729 122.478 25.4688C121.436 24.8542 120.697 24 120.259 22.9062C119.832 21.8021 119.619 20.2396 119.619 18.2188V12.3281C119.619 10.5677 119.796 9.23958 120.15 8.34375C120.504 7.44792 121.259 6.65104 122.416 5.95312C123.572 5.24479 124.978 4.89062 126.634 4.89062C128.28 4.89062 129.686 5.23958 130.853 5.9375C132.02 6.63542 132.796 7.51562 133.181 8.57812C133.567 9.64062 133.759 11.1458 133.759 13.0938ZM145.506 2.5V5.76562H147.209V9.04688H145.506V20.1406C145.506 21.5052 145.574 22.2656 145.709 22.4219C145.855 22.5781 146.444 22.6562 147.475 22.6562V26H144.928C143.491 26 142.465 25.9427 141.85 25.8281C141.235 25.7031 140.694 25.4271 140.225 25C139.756 24.5625 139.465 24.0677 139.35 23.5156C139.235 22.9531 139.178 21.6406 139.178 19.5781V9.04688H137.819V5.76562H139.178V2.5H145.506ZM158.3 0.703125V4H151.8V0.703125H158.3ZM158.3 5.26562V26H151.8V5.26562H158.3ZM178.062 12.5469V17.625C178.062 19.4896 177.969 20.8594 177.781 21.7344C177.594 22.599 177.193 23.4115 176.578 24.1719C175.964 24.9219 175.172 25.4792 174.203 25.8438C173.245 26.1979 172.141 26.375 170.891 26.375C169.495 26.375 168.312 26.224 167.344 25.9219C166.375 25.6094 165.62 25.1458 165.078 24.5312C164.547 23.9062 164.167 23.1562 163.938 22.2812C163.708 21.3958 163.594 20.0729 163.594 18.3125V13C163.594 11.0729 163.802 9.56771 164.219 8.48438C164.635 7.40104 165.385 6.53125 166.469 5.875C167.552 5.21875 168.938 4.89062 170.625 4.89062C172.042 4.89062 173.255 5.10417 174.266 5.53125C175.286 5.94792 176.073 6.49479 176.625 7.17188C177.177 7.84896 177.552 8.54688 177.75 9.26562C177.958 9.98438 178.062 11.0781 178.062 12.5469ZM171.75 10.9844C171.75 9.92188 171.693 9.25521 171.578 8.98438C171.464 8.70312 171.219 8.5625 170.844 8.5625C170.469 8.5625 170.219 8.70312 170.094 8.98438C169.969 9.25521 169.906 9.92188 169.906 10.9844V20.3438C169.906 21.3229 169.969 21.9635 170.094 22.2656C170.219 22.5573 170.464 22.7031 170.828 22.7031C171.203 22.7031 171.448 22.5677 171.562 22.2969C171.688 22.026 171.75 21.4427 171.75 20.5469V10.9844ZM189.778 5.26562L189.669 7.17188C190.127 6.41146 190.684 5.84375 191.341 5.46875C192.007 5.08333 192.773 4.89062 193.637 4.89062C194.721 4.89062 195.606 5.14583 196.294 5.65625C196.981 6.16667 197.424 6.8125 197.622 7.59375C197.82 8.36458 197.919 9.65625 197.919 11.4688V26H191.606V11.6406C191.606 10.2135 191.559 9.34375 191.466 9.03125C191.372 8.71875 191.111 8.5625 190.684 8.5625C190.236 8.5625 189.955 8.74479 189.841 9.10938C189.726 9.46354 189.669 10.4219 189.669 11.9844V26H183.356V5.26562H189.778Z" fill="black"/>
</svg>
