<svg width="72" height="72" viewBox="0 0 72 72" fill="none" xmlns="http://www.w3.org/2000/svg">
<path d="M21.7424 31.5C19.0475 31.5 16.75 30.5475 14.85 28.6424C12.95 26.7374 12 24.4374 12 21.7424C12 19.0475 12.9525 16.75 14.8576 14.85C16.7626 12.95 19.0626 12 21.7576 12C24.4525 12 26.75 12.9525 28.65 14.8576C30.55 16.7626 31.5 19.0626 31.5 21.7576C31.5 24.4525 30.5475 26.75 28.6424 28.65C26.7374 30.55 24.4374 31.5 21.7424 31.5ZM21.7411 27C23.1971 27 24.4375 26.4904 25.4625 25.4713C26.4875 24.4522 27 23.2147 27 21.7588C27 20.3029 26.4905 19.0625 25.4714 18.0375C24.4522 17.0125 23.2147 16.5 21.7589 16.5C20.303 16.5 19.0625 17.0096 18.0375 18.0287C17.0125 19.0478 16.5 20.2853 16.5 21.7412C16.5 23.1971 17.0096 24.4375 18.0287 25.4625C19.0478 26.4875 20.2853 27 21.7411 27ZM50.2424 60C47.5475 60 45.25 59.0475 43.35 57.1424C41.45 55.2374 40.5 52.9374 40.5 50.2424C40.5 47.5475 41.4525 45.25 43.3576 43.35C45.2626 41.45 47.5626 40.5 50.2576 40.5C52.9525 40.5 55.25 41.4525 57.15 43.3576C59.05 45.2626 60 47.5626 60 50.2576C60 52.9525 59.0475 55.25 57.1424 57.15C55.2374 59.05 52.9374 60 50.2424 60ZM50.2412 55.5C51.6971 55.5 52.9375 54.9905 53.9625 53.9714C54.9875 52.9522 55.5 51.7147 55.5 50.2589C55.5 48.803 54.9905 47.5625 53.9714 46.5375C52.9522 45.5125 51.7147 45 50.2589 45C48.803 45 47.5625 45.5096 46.5375 46.5287C45.5125 47.5478 45 48.7853 45 50.2411C45 51.6971 45.5096 52.9375 46.5287 53.9625C47.5478 54.9875 48.7853 55.5 50.2412 55.5ZM15.15 60L12 56.85L56.85 12L60 15.15L15.15 60Z" fill="#333333"/>
</svg>
